<svg id="Grupo_30" data-name="Grupo 30" xmlns="http://www.w3.org/2000/svg" width="49.995" height="67.071" viewBox="0 0 49.995 67.071">
  <g id="Grupo_29" data-name="Grupo 29" transform="translate(0)">
    <g id="Grupo_28" data-name="Grupo 28">
      <g id="Grupo_27" data-name="Grupo 27">
        <g id="Grupo_26" data-name="Grupo 26">
          <path id="Caminho_100" data-name="Caminho 100" d="M436.784,309.458h-4.472V264.326a12.325,12.325,0,0,0-12.51-12.509H399.3a12.325,12.325,0,0,0-12.51,12.509v42.051a12.1,12.1,0,0,0,3.512,8.853,12.3,12.3,0,0,0,8.9,3.657h37.582Zm-39.891,0v-48.21h25.315v48.21Z" transform="translate(-386.789 -251.817)" fill="#fff"/>
        </g>
        <path id="Caminho_101" data-name="Caminho 101" d="M418.06,296.285l6.75-4.9h-8.343l-2.578-7.935-2.578,7.935h-8.343l6.75,4.9-2.578,7.935,6.75-4.9,6.75,4.9Z" transform="translate(-391.127 -260.297)" fill="#fff"/>
      </g>
    </g>
  </g>
</svg>
